<svg width="48" height="49" viewBox="0 0 48 49" fill="none" xmlns="http://www.w3.org/2000/svg">
<g filter="url(#filter0_d_1910_20701)">
<path fill-rule="evenodd" clip-rule="evenodd" d="M20.6156 0.551911C16.1057 1.05133 12.2262 2.93309 9.15669 6.11014C6.87265 8.47427 5.3424 11.2054 4.54544 14.3404C4.11266 16.0429 3.99784 17.0167 4.00003 18.9665C4.00222 20.8981 4.10969 21.8027 4.53918 23.5031C6.34273 30.6437 12.3287 36.0331 19.758 37.2049C21.0095 37.4024 23.8209 37.4017 25.0349 37.2036C26.0684 37.0351 27.2847 36.7462 28.0324 36.4919L28.5802 36.3056L28.8773 36.7875C29.2771 37.4358 30.3492 38.5345 31.0646 39.029C35.2011 41.8886 40.8857 40.4308 43.111 35.9397C43.3529 35.4515 43.627 34.741 43.7447 34.2971C43.9285 33.6041 43.952 33.3723 43.9503 32.2635C43.9487 31.1692 43.923 30.9166 43.7463 30.2528C43.4992 29.3248 43.0522 28.3527 42.5162 27.5774C42.0216 26.8619 40.923 25.7899 40.2744 25.3899L39.7922 25.0925L39.9462 24.6498C40.1967 23.9301 40.5502 22.4051 40.6914 21.4349C40.8549 20.3119 40.875 17.7205 40.7286 16.659C39.8631 10.3859 36.1164 5.10418 30.6162 2.40325C28.8005 1.51164 26.9695 0.936507 25.0732 0.662198C24.0106 0.508422 21.5564 0.447725 20.6156 0.551911ZM23.9902 2.11267C28.5712 2.56703 32.757 4.83738 35.5997 8.4095C39.0002 12.6828 40.1382 18.304 38.6555 23.5031C38.3735 24.4915 38.4488 24.4483 37.4324 24.2057C36.4993 23.983 34.795 24.0121 33.8286 24.2672C31.5176 24.8771 29.8517 26.1427 28.5425 28.283C28.4594 28.4189 28.4068 28.3868 27.8882 27.8833C26.376 26.4151 25.2952 24.5744 24.7509 22.5403L24.577 21.8905L24.9002 21.5673L25.2234 21.2442L27.8276 21.6898C30.6302 22.1692 31.4034 22.2266 32.234 22.0162C34.0298 21.5617 35.4867 20.0143 35.8303 18.197C35.9993 17.3032 35.9951 13.5669 35.8245 12.9924C35.5832 12.1801 34.7682 11.5765 33.9126 11.5765C33.2856 11.5765 32.7758 11.8396 32.3049 12.4063C30.5234 14.5503 28.5138 15.8934 26.104 16.5506L25.3742 16.7496L25.0587 16.411L24.7431 16.0724L25.1847 13.4521C25.6573 10.6479 25.7104 9.92372 25.503 9.10791C25.2182 7.98752 24.4098 6.8439 23.4545 6.20979C23.209 6.04686 22.7073 5.80579 22.3398 5.67415L21.6715 5.43481H19.0903H16.5091L16.0908 5.66649C15.1726 6.17514 14.8057 7.30562 15.2496 8.25893C15.3891 8.55835 15.5993 8.79519 16.0897 9.20505C16.9923 9.95938 17.9108 10.9493 18.4431 11.7414C19.0162 12.5943 19.6939 14.0089 19.9373 14.86C20.2663 16.0101 20.2688 15.9542 19.8745 16.2901L19.5273 16.5859L16.9623 16.1417C14.1679 15.6577 13.4267 15.6047 12.5689 15.8274C11.2849 16.1607 9.97453 17.2221 9.40432 18.3904C8.92329 19.3762 8.87127 19.7967 8.89833 22.4816C8.92086 24.719 8.93025 24.848 9.09114 25.1457C9.48012 25.8652 10.0836 26.2338 10.8791 26.2379C11.6375 26.2418 12.0633 26.0154 12.6474 25.298C14.141 23.4634 16.1082 22.096 18.1908 21.4451C19.4494 21.0517 19.4058 21.0518 19.7647 21.4406L20.0767 21.7786L19.6307 24.3616C19.1423 27.1892 19.0918 27.912 19.3215 28.7828C19.7467 30.3945 21.0555 31.734 22.7275 32.2686C23.082 32.382 23.5383 32.4121 25.3235 32.4398L27.4893 32.4736L27.5381 32.916C27.602 33.4949 27.7791 34.3978 27.8816 34.6669L27.9629 34.8803L27.3202 35.0752C25.6235 35.5898 24.4033 35.7645 22.4537 35.7717C20.7127 35.7781 19.7337 35.6626 18.2186 35.272C12.6482 33.8356 8.16676 29.6378 6.38379 24.1858C4.63696 18.8444 5.58214 13.216 8.98602 8.68944C9.63608 7.82498 11.0171 6.40408 11.8325 5.76074C15.3071 3.01944 19.7353 1.69068 23.9902 2.11267ZM21.5964 7.08066C22.5601 7.3301 23.3287 7.97805 23.7711 8.91416C24.1552 9.72708 24.1463 10.3103 23.7112 12.8264C23.5141 13.9664 23.3341 14.9884 23.3113 15.0975C23.2701 15.2947 23.2653 15.2958 22.481 15.2873L21.6922 15.2787L21.4417 14.4632C20.8577 12.5609 19.995 11.0065 18.7198 9.55828C18.2738 9.05183 17.952 8.74709 16.9123 7.84665C16.5991 7.57539 16.548 7.33276 16.7559 7.10311C16.8753 6.97124 17.051 6.96005 19.0078 6.96005C20.6667 6.96005 21.2321 6.98641 21.5964 7.08066ZM34.2601 13.3131C34.3626 13.4595 34.3819 13.8046 34.3819 15.4993C34.3819 16.6806 34.3458 17.6829 34.2946 17.9262C34.0812 18.9396 33.4109 19.799 32.4755 20.2585C31.6156 20.681 31.0988 20.672 28.2937 20.1856C27.0315 19.9668 25.9897 19.7877 25.9783 19.7877C25.967 19.7877 25.988 19.6029 26.025 19.3771C26.0621 19.1513 26.0712 18.788 26.0452 18.5699L25.9981 18.1733L26.4551 18.0717C27.6132 17.814 29.1286 17.128 30.3795 16.2949C31.3256 15.6648 32.6236 14.4811 33.2985 13.633C33.6162 13.2337 33.7342 13.1392 33.9148 13.1392C34.0571 13.1392 34.1826 13.2024 34.2601 13.3131ZM23.0335 16.938C24.5362 17.3843 24.9844 19.3935 23.8167 20.4485C23.3892 20.8348 23.0079 20.9813 22.4139 20.9878C21.7823 20.9946 21.3089 20.7846 20.8618 20.2997C20.5478 19.959 20.3027 19.3574 20.3027 18.9274C20.3027 18.1202 20.9396 17.2353 21.7123 16.9685C22.2395 16.7865 22.5028 16.7804 23.0335 16.938ZM16.4309 17.6434C17.5494 17.8323 18.5362 18.0037 18.6239 18.0242C18.7721 18.059 18.7825 18.1175 18.7745 18.8596L18.7658 19.6577L18.1459 19.83C16.3476 20.33 14.7586 21.1806 13.1996 22.4783C12.6062 22.9721 12.1762 23.4223 11.2683 24.5004C11.0542 24.7546 10.82 24.7753 10.6037 24.559C10.4551 24.4104 10.4473 24.2983 10.4473 22.3071C10.4473 19.5577 10.5556 19.1184 11.4543 18.2217C12.1538 17.5239 13.0986 17.1678 14.0062 17.2601C14.2213 17.282 15.3124 17.4545 16.4309 17.6434ZM22.7467 22.5587C23.022 22.5232 23.1258 22.5379 23.1487 22.6159C24.0765 25.7771 25.2405 27.6866 27.3733 29.5464L27.8345 29.9487L27.7342 30.4217L27.6338 30.8947H25.732C24.6339 30.8947 23.655 30.8578 23.4157 30.8074C21.6807 30.4426 20.5227 28.8049 20.7719 27.069C20.8628 26.436 21.3728 23.4168 21.4812 22.8699L21.5602 22.4715L21.9679 22.5391C22.1921 22.5762 22.5425 22.585 22.7467 22.5587ZM37.398 25.8112C40.8379 26.6879 43.0044 30.1366 42.2899 33.5983C42.003 34.9881 41.3889 36.0884 40.3408 37.0897C37.7468 39.568 33.7719 39.5629 31.1463 37.078C30.2748 36.2533 29.6174 35.1307 29.2887 33.906C29.0553 33.0363 29.0517 31.5023 29.2812 30.6527C29.9956 28.0068 32.1313 26.0672 34.776 25.6621C35.4749 25.555 36.6568 25.6222 37.398 25.8112ZM33.7037 27.2543C33.4047 27.3842 33.2868 27.5832 33.2868 27.9581C33.2868 28.1851 33.4518 28.4855 34.1515 29.5323C34.9511 30.7284 35.0144 30.8505 34.9924 31.1536C34.9688 31.4781 34.9653 31.4815 34.6408 31.5051C34.3377 31.5271 34.2157 31.4638 33.0195 30.6643C31.9393 29.9422 31.6769 29.7996 31.4287 29.7996C31.0527 29.7996 30.8199 29.9617 30.7078 30.3015C30.5498 30.7804 30.7218 31.0152 31.7094 31.6682C32.1883 31.9848 32.5645 32.269 32.5455 32.2998C32.5265 32.3305 32.1406 32.5989 31.6878 32.8962C30.7384 33.5197 30.5563 33.7664 30.7075 34.2246C30.7572 34.3751 30.8873 34.5568 30.9965 34.6284C31.4036 34.8951 31.6288 34.8145 32.9686 33.9217C34.1467 33.1367 34.2489 33.0848 34.6161 33.0848H35.0076V33.3962C35.0076 33.6618 34.8811 33.8984 34.1472 35.0046C33.4133 36.1108 33.2868 36.3474 33.2868 36.6131C33.2868 37.1542 33.816 37.5105 34.3134 37.3044C34.4876 37.2323 34.7195 36.9572 35.1467 36.3158C35.4722 35.8269 35.7631 35.4544 35.793 35.4878C35.823 35.5212 36.0956 35.9216 36.3989 36.3773C37.0086 37.2937 37.2388 37.4649 37.6878 37.3361C38.0139 37.2426 38.32 36.8017 38.2618 36.5094C38.2386 36.3925 37.8488 35.7415 37.3958 35.0627C36.6381 33.9276 36.572 33.7987 36.572 33.4567V33.0848H36.9439C37.286 33.0848 37.4149 33.1508 38.5499 33.9085C39.2287 34.3616 39.8797 34.7513 39.9966 34.7746C40.289 34.8328 40.7298 34.5267 40.8233 34.2005C40.9521 33.7516 40.781 33.5214 39.8646 32.9117C39.4088 32.6084 39.0085 32.3357 38.9751 32.3058C38.9416 32.2758 39.3141 31.985 39.803 31.6595C40.4444 31.2322 40.7196 31.0003 40.7917 30.8261C40.9978 30.3288 40.6414 29.7996 40.1003 29.7996C39.8346 29.7996 39.5981 29.9261 38.4918 30.66C37.3856 31.3938 37.1491 31.5204 36.8834 31.5204H36.572V31.1289C36.572 30.7617 36.6239 30.6595 37.4089 29.4813C38.3017 28.1416 38.3823 27.9164 38.1156 27.5093C38.044 27.4 37.8623 27.27 37.7118 27.2203C37.2536 27.0691 37.007 27.2511 36.3834 28.2006C36.0862 28.6533 35.8177 29.0393 35.787 29.0583C35.7562 29.0773 35.472 28.701 35.1554 28.2222C34.7279 27.5756 34.5146 27.3243 34.3269 27.2459C34.022 27.1185 34.0156 27.1185 33.7037 27.2543Z" fill="#003154"/>
</g>
<defs>
<filter id="filter0_d_1910_20701" x="0" y="0.5" width="47.9502" height="48" filterUnits="userSpaceOnUse" color-interpolation-filters="sRGB">
<feFlood flood-opacity="0" result="BackgroundImageFix"/>
<feColorMatrix in="SourceAlpha" type="matrix" values="0 0 0 0 0 0 0 0 0 0 0 0 0 0 0 0 0 0 127 0" result="hardAlpha"/>
<feOffset dy="4"/>
<feGaussianBlur stdDeviation="2"/>
<feComposite in2="hardAlpha" operator="out"/>
<feColorMatrix type="matrix" values="0 0 0 0 0 0 0 0 0 0 0 0 0 0 0 0 0 0 0.25 0"/>
<feBlend mode="normal" in2="BackgroundImageFix" result="effect1_dropShadow_1910_20701"/>
<feBlend mode="normal" in="SourceGraphic" in2="effect1_dropShadow_1910_20701" result="shape"/>
</filter>
</defs>
</svg>
