<svg width="22" height="12" viewBox="0 0 22 12" fill="none" xmlns="http://www.w3.org/2000/svg">
<path fill-rule="evenodd" clip-rule="evenodd" d="M12.0839 9.90961C12.0573 9.88104 12.0362 9.84709 12.0218 9.80971C12.0074 9.77233 12 9.73226 12 9.69179C12 9.65133 12.0074 9.61126 12.0218 9.57388C12.0362 9.5365 12.0573 9.50255 12.0839 9.47397L14.0462 7.36085C14.7588 6.59348 14.7588 5.40636 14.0462 4.63899L12.0839 2.52586C12.0574 2.49726 12.0363 2.4633 12.0219 2.42593C12.0075 2.38855 12.0001 2.3485 12.0001 2.30804C12.0001 2.26759 12.0075 2.22753 12.0219 2.19016C12.0363 2.15279 12.0574 2.11883 12.0839 2.09022C12.1105 2.06162 12.142 2.03893 12.1767 2.02345C12.2114 2.00797 12.2486 2 12.2862 2C12.3237 2 12.3609 2.00797 12.3956 2.02345C12.4303 2.03893 12.4618 2.06162 12.4884 2.09022L15.9161 5.7821C15.9427 5.81068 15.9638 5.84463 15.9782 5.882C15.9926 5.91938 16 5.95945 16 5.99992C16 6.04039 15.9926 6.08046 15.9782 6.11783C15.9638 6.15521 15.9427 6.18916 15.9161 6.21774L12.4884 9.90961C12.4619 9.93827 12.4303 9.961 12.3956 9.97651C12.3609 9.99202 12.3237 10 12.2862 10C12.2486 10 12.2114 9.99202 12.1767 9.97651C12.142 9.961 12.1105 9.93827 12.0839 9.90961Z" fill="#003154"/>
<path fill-rule="evenodd" clip-rule="evenodd" d="M12.0839 9.90961C12.0573 9.88104 12.0362 9.84709 12.0218 9.80971C12.0074 9.77233 12 9.73226 12 9.69179C12 9.65133 12.0074 9.61126 12.0218 9.57388C12.0362 9.5365 12.0573 9.50255 12.0839 9.47397L14.0462 7.36085C14.7588 6.59348 14.7588 5.40636 14.0462 4.63899L12.0839 2.52586C12.0574 2.49726 12.0363 2.4633 12.0219 2.42593C12.0075 2.38855 12.0001 2.3485 12.0001 2.30804C12.0001 2.26759 12.0075 2.22753 12.0219 2.19016C12.0363 2.15279 12.0574 2.11883 12.0839 2.09022C12.1105 2.06162 12.142 2.03893 12.1767 2.02345C12.2114 2.00797 12.2486 2 12.2862 2C12.3237 2 12.3609 2.00797 12.3956 2.02345C12.4303 2.03893 12.4618 2.06162 12.4884 2.09022L15.9161 5.7821C15.9427 5.81068 15.9638 5.84463 15.9782 5.882C15.9926 5.91938 16 5.95945 16 5.99992C16 6.04039 15.9926 6.08046 15.9782 6.11783C15.9638 6.15521 15.9427 6.18916 15.9161 6.21774L12.4884 9.90961C12.4619 9.93827 12.4303 9.961 12.3956 9.97651C12.3609 9.99202 12.3237 10 12.2862 10C12.2486 10 12.2114 9.99202 12.1767 9.97651C12.142 9.961 12.1105 9.93827 12.0839 9.90961Z" fill="#003154"/>
<path d="M12.0839 9.90961C12.0573 9.88104 12.0362 9.84709 12.0218 9.80971C12.0074 9.77233 12 9.73226 12 9.69179C12 9.65133 12.0074 9.61126 12.0218 9.57388C12.0362 9.5365 12.0573 9.50255 12.0839 9.47397L14.0462 7.36085C14.7588 6.59348 14.7588 5.40636 14.0462 4.63899L12.0839 2.52586C12.0574 2.49726 12.0363 2.4633 12.0219 2.42593C12.0075 2.38855 12.0001 2.3485 12.0001 2.30804C12.0001 2.26759 12.0075 2.22753 12.0219 2.19016C12.0363 2.15279 12.0574 2.11883 12.0839 2.09022C12.1105 2.06162 12.142 2.03893 12.1767 2.02345C12.2114 2.00797 12.2486 2 12.2862 2C12.3237 2 12.3609 2.00797 12.3956 2.02345C12.4303 2.03893 12.4618 2.06162 12.4884 2.09022L15.9161 5.7821C15.9427 5.81068 15.9638 5.84463 15.9782 5.882C15.9926 5.91938 16 5.95945 16 5.99992C16 6.04039 15.9926 6.08046 15.9782 6.11783C15.9638 6.15521 15.9427 6.18916 15.9161 6.21774L12.4884 9.90961C12.4619 9.93827 12.4303 9.961 12.3956 9.97651C12.3609 9.99202 12.3237 10 12.2862 10C12.2486 10 12.2114 9.99202 12.1767 9.97651C12.142 9.961 12.1105 9.93827 12.0839 9.90961Z" stroke="#003154" stroke-width="0.5"/>
</svg>
